<svg xmlns="http://www.w3.org/2000/svg" width="34" height="27" viewBox="0 0 34 27" fill="none">
<mask id="path-1-outside-1_9_522" maskUnits="userSpaceOnUse" x="0" y="0" width="32" height="27" fill="black">
<rect fill="white" width="32" height="27"/>
<path d="M10.3449 10.4896L6.88182 13.3752L10.3449 16.2609C10.4598 16.355 10.5549 16.4709 10.6247 16.602C10.6945 16.733 10.7377 16.8766 10.7518 17.0244C10.7659 17.1723 10.7505 17.3214 10.7067 17.4633C10.6628 17.6051 10.5913 17.7369 10.4963 17.851C10.4012 17.9651 10.2845 18.0593 10.1529 18.128C10.0213 18.1968 9.8774 18.2389 9.72947 18.2518C9.58153 18.2646 9.43251 18.2481 9.291 18.2031C9.14948 18.1581 9.01828 18.0856 8.90494 17.9896L4.40494 14.2396C4.2782 14.134 4.17623 14.0019 4.10625 13.8525C4.03627 13.7031 4 13.5402 4 13.3752C4 13.2103 4.03627 13.0474 4.10625 12.898C4.17623 12.7486 4.2782 12.6164 4.40494 12.5109L8.90494 8.76087C9.13451 8.57273 9.42913 8.48294 9.7246 8.51106C10.0201 8.53917 10.2925 8.68292 10.4824 8.91097C10.6724 9.13903 10.7645 9.43292 10.7388 9.72861C10.713 10.0243 10.5715 10.2978 10.3449 10.4896ZM26.8449 12.5109L22.3449 8.76087C22.2316 8.66492 22.1004 8.59236 21.9589 8.54737C21.8174 8.50238 21.6684 8.48585 21.5204 8.49873C21.3725 8.51162 21.2286 8.55366 21.097 8.62244C20.9654 8.69122 20.8487 8.78537 20.7536 8.89947C20.6586 9.01356 20.5871 9.14534 20.5432 9.28721C20.4994 9.42908 20.484 9.57823 20.4981 9.72606C20.5122 9.87388 20.5554 10.0175 20.6252 10.1485C20.695 10.2796 20.7901 10.3955 20.9049 10.4896L24.3681 13.3752L20.9049 16.2609C20.7901 16.355 20.695 16.4709 20.6252 16.602C20.5554 16.733 20.5122 16.8766 20.4981 17.0244C20.484 17.1723 20.4994 17.3214 20.5432 17.4633C20.5871 17.6051 20.6586 17.7369 20.7536 17.851C20.8487 17.9651 20.9654 18.0593 21.097 18.128C21.2286 18.1968 21.3725 18.2389 21.5204 18.2518C21.6684 18.2646 21.8174 18.2481 21.9589 18.2031C22.1004 18.1581 22.2316 18.0856 22.3449 17.9896L26.8449 14.2396C26.9717 14.134 27.0737 14.0019 27.1436 13.8525C27.2136 13.7031 27.2499 13.5402 27.2499 13.3752C27.2499 13.2103 27.2136 13.0474 27.1436 12.898C27.0737 12.7486 26.9717 12.6164 26.8449 12.5109ZM19.0093 4.06774C18.8705 4.01724 18.723 3.99459 18.5754 4.00109C18.4277 4.00759 18.2828 4.0431 18.1489 4.10561C18.015 4.16812 17.8948 4.25639 17.795 4.36539C17.6952 4.47439 17.6179 4.60198 17.5674 4.74087L11.5674 21.2409C11.4657 21.5212 11.4795 21.8305 11.6057 22.1007C11.732 22.3709 11.9603 22.5799 12.2406 22.6818C12.3636 22.7272 12.4938 22.7504 12.6249 22.7502C12.8559 22.7503 13.0813 22.6792 13.2705 22.5467C13.4597 22.4142 13.6035 22.2267 13.6824 22.0096L19.6824 5.50962C19.7329 5.37075 19.7556 5.22329 19.7491 5.07566C19.7426 4.92803 19.7071 4.78313 19.6446 4.64924C19.5821 4.51534 19.4938 4.39507 19.3848 4.2953C19.2758 4.19552 19.1482 4.1182 19.0093 4.06774Z"/>
</mask>
<path d="M10.3449 10.4896L6.88182 13.3752L10.3449 16.2609C10.4598 16.355 10.5549 16.4709 10.6247 16.602C10.6945 16.733 10.7377 16.8766 10.7518 17.0244C10.7659 17.1723 10.7505 17.3214 10.7067 17.4633C10.6628 17.6051 10.5913 17.7369 10.4963 17.851C10.4012 17.9651 10.2845 18.0593 10.1529 18.128C10.0213 18.1968 9.8774 18.2389 9.72947 18.2518C9.58153 18.2646 9.43251 18.2481 9.291 18.2031C9.14948 18.1581 9.01828 18.0856 8.90494 17.9896L4.40494 14.2396C4.2782 14.134 4.17623 14.0019 4.10625 13.8525C4.03627 13.7031 4 13.5402 4 13.3752C4 13.2103 4.03627 13.0474 4.10625 12.898C4.17623 12.7486 4.2782 12.6164 4.40494 12.5109L8.90494 8.76087C9.13451 8.57273 9.42913 8.48294 9.7246 8.51106C10.0201 8.53917 10.2925 8.68292 10.4824 8.91097C10.6724 9.13903 10.7645 9.43292 10.7388 9.72861C10.713 10.0243 10.5715 10.2978 10.3449 10.4896ZM26.8449 12.5109L22.3449 8.76087C22.2316 8.66492 22.1004 8.59236 21.9589 8.54737C21.8174 8.50238 21.6684 8.48585 21.5204 8.49873C21.3725 8.51162 21.2286 8.55366 21.097 8.62244C20.9654 8.69122 20.8487 8.78537 20.7536 8.89947C20.6586 9.01356 20.5871 9.14534 20.5432 9.28721C20.4994 9.42908 20.484 9.57823 20.4981 9.72606C20.5122 9.87388 20.5554 10.0175 20.6252 10.1485C20.695 10.2796 20.7901 10.3955 20.9049 10.4896L24.3681 13.3752L20.9049 16.2609C20.7901 16.355 20.695 16.4709 20.6252 16.602C20.5554 16.733 20.5122 16.8766 20.4981 17.0244C20.484 17.1723 20.4994 17.3214 20.5432 17.4633C20.5871 17.6051 20.6586 17.7369 20.7536 17.851C20.8487 17.9651 20.9654 18.0593 21.097 18.128C21.2286 18.1968 21.3725 18.2389 21.5204 18.2518C21.6684 18.2646 21.8174 18.2481 21.9589 18.2031C22.1004 18.1581 22.2316 18.0856 22.3449 17.9896L26.8449 14.2396C26.9717 14.134 27.0737 14.0019 27.1436 13.8525C27.2136 13.7031 27.2499 13.5402 27.2499 13.3752C27.2499 13.2103 27.2136 13.0474 27.1436 12.898C27.0737 12.7486 26.9717 12.6164 26.8449 12.5109ZM19.0093 4.06774C18.8705 4.01724 18.723 3.99459 18.5754 4.00109C18.4277 4.00759 18.2828 4.0431 18.1489 4.10561C18.015 4.16812 17.8948 4.25639 17.795 4.36539C17.6952 4.47439 17.6179 4.60198 17.5674 4.74087L11.5674 21.2409C11.4657 21.5212 11.4795 21.8305 11.6057 22.1007C11.732 22.3709 11.9603 22.5799 12.2406 22.6818C12.3636 22.7272 12.4938 22.7504 12.6249 22.7502C12.8559 22.7503 13.0813 22.6792 13.2705 22.5467C13.4597 22.4142 13.6035 22.2267 13.6824 22.0096L19.6824 5.50962C19.7329 5.37075 19.7556 5.22329 19.7491 5.07566C19.7426 4.92803 19.7071 4.78313 19.6446 4.64924C19.5821 4.51534 19.4938 4.39507 19.3848 4.2953C19.2758 4.19552 19.1482 4.1182 19.0093 4.06774Z" fill="#82BC4F"/>
<path d="M10.3449 10.4896L12.9055 13.5626L12.9176 13.5526L12.9295 13.5425L10.3449 10.4896ZM6.88182 13.3752L4.32125 10.3022L0.63322 13.3752L4.32125 16.4483L6.88182 13.3752ZM10.3449 16.2609L7.78437 19.3339L7.7969 19.3443L7.80951 19.3547L10.3449 16.2609ZM8.90494 17.9896L11.4895 14.9367L11.4776 14.9267L11.4657 14.9167L8.90494 17.9896ZM4.40494 14.2396L6.96568 11.1667L6.96514 11.1663L4.40494 14.2396ZM4 13.3752H8H4ZM4.40494 12.5109L6.96514 15.5842L6.96568 15.5838L4.40494 12.5109ZM8.90494 8.76087L6.36951 5.66707L6.35682 5.67748L6.34421 5.68798L8.90494 8.76087ZM26.8449 12.5109L24.2842 15.5838L24.2847 15.5842L26.8449 12.5109ZM22.3449 8.76087L19.7604 11.8137L19.7723 11.8238L19.7842 11.8338L22.3449 8.76087ZM20.9049 10.4896L23.4655 7.4166L23.453 7.40616L23.4404 7.39582L20.9049 10.4896ZM24.3681 13.3752L26.9286 16.4483L30.6167 13.3752L26.9286 10.3022L24.3681 13.3752ZM20.9049 16.2609L23.4404 19.3547L23.453 19.3443L23.4655 19.3339L20.9049 16.2609ZM22.3449 17.9896L19.7842 14.9167L19.7723 14.9267L19.7604 14.9367L22.3449 17.9896ZM26.8449 14.2396L24.2847 11.1663L24.2842 11.1667L26.8449 14.2396ZM19.0093 4.06774L17.6423 7.82688L17.6435 7.82734L19.0093 4.06774ZM17.5674 4.74087L21.3266 6.10784L21.327 6.10667L17.5674 4.74087ZM11.5674 21.2409L7.80827 19.8739L7.80724 19.8767L11.5674 21.2409ZM12.2406 22.6818L13.6262 18.9295L13.6168 18.926L13.6074 18.9226L12.2406 22.6818ZM12.6249 22.7502L12.6257 18.7502L12.6196 18.7502L12.6249 22.7502ZM13.6824 22.0096L9.92327 20.6426L9.92316 20.643L13.6824 22.0096ZM19.6824 5.50962L15.9233 4.14255L15.9233 4.14265L19.6824 5.50962ZM7.78437 7.4166L4.32125 10.3022L9.44239 16.4483L12.9055 13.5626L7.78437 7.4166ZM4.32125 16.4483L7.78437 19.3339L12.9055 13.1878L9.44239 10.3022L4.32125 16.4483ZM7.80951 19.3547C7.51601 19.1141 7.27302 18.8179 7.09456 18.4829L14.1549 14.721C13.8367 14.124 13.4036 13.5958 12.8804 13.1671L7.80951 19.3547ZM7.09456 18.4829C6.9161 18.148 6.80573 17.7811 6.76978 17.4033L14.7338 16.6455C14.6697 15.9721 14.473 15.318 14.1549 14.721L7.09456 18.4829ZM6.76978 17.4033C6.73383 17.0256 6.77303 16.6444 6.88511 16.2819L14.5282 18.6447C14.728 17.9984 14.7979 17.3189 14.7338 16.6455L6.76978 17.4033ZM6.88511 16.2819C6.9972 15.9193 7.17994 15.5825 7.42282 15.2909L13.5697 20.4111C14.0026 19.8913 14.3284 19.291 14.5282 18.6447L6.88511 16.2819ZM7.42282 15.2909C7.66571 14.9994 7.96391 14.7587 8.30023 14.583L12.0056 21.6731C12.6052 21.3598 13.1367 20.9309 13.5697 20.4111L7.42282 15.2909ZM8.30023 14.583C8.63656 14.4072 9.00435 14.2998 9.3824 14.2668L10.0765 22.2367C10.7504 22.178 11.4061 21.9864 12.0056 21.6731L8.30023 14.583ZM9.3824 14.2668C9.76044 14.2339 10.1413 14.2762 10.5029 14.3911L8.07907 22.0151C8.72375 22.2201 9.40263 22.2954 10.0765 22.2367L9.3824 14.2668ZM10.5029 14.3911C10.8646 14.5061 11.1999 14.6915 11.4895 14.9367L6.32038 21.0425C6.83667 21.4796 7.43439 21.8101 8.07907 22.0151L10.5029 14.3911ZM11.4657 14.9167L6.96568 11.1667L1.84421 17.3125L6.34421 21.0625L11.4657 14.9167ZM6.96514 11.1663C7.28903 11.4361 7.54963 11.7738 7.72846 12.1556L0.484045 15.5494C0.80284 16.2299 1.26738 16.832 1.84474 17.313L6.96514 11.1663ZM7.72846 12.1556C7.9073 12.5373 8 12.9537 8 13.3752H0C0 14.1267 0.16525 14.869 0.484045 15.5494L7.72846 12.1556ZM8 13.3752C8 13.7968 7.9073 14.2132 7.72846 14.5949L0.484045 11.201C0.165251 11.8815 0 12.6238 0 13.3752H8ZM7.72846 14.5949C7.54963 14.9766 7.28904 15.3144 6.96514 15.5842L1.84474 9.43753C1.26737 9.91851 0.802837 10.5206 0.484045 11.201L7.72846 14.5949ZM6.96568 15.5838L11.4657 11.8338L6.34421 5.68798L1.84421 9.43798L6.96568 15.5838ZM11.4404 11.8547C10.8537 12.3355 10.1008 12.5649 9.34569 12.4931L10.1035 4.52904C8.75746 4.40096 7.41532 4.81001 6.36951 5.66707L11.4404 11.8547ZM9.34569 12.4931C8.59059 12.4212 7.89447 12.0539 7.40901 11.4711L13.5559 6.35089C12.6905 5.31197 11.4496 4.65713 10.1035 4.52904L9.34569 12.4931ZM7.40901 11.4711C6.92354 10.8882 6.68806 10.1372 6.75388 9.38154L14.7237 10.0757C14.841 8.72864 14.4213 7.38982 13.5559 6.35089L7.40901 11.4711ZM6.75388 9.38154C6.81969 8.62588 7.18147 7.92685 7.76038 7.43675L12.9295 13.5425C13.9615 12.6688 14.6064 11.4227 14.7237 10.0757L6.75388 9.38154ZM29.4057 9.43798L24.9057 5.68798L19.7842 11.8338L24.2842 15.5838L29.4057 9.43798ZM24.9295 5.708C24.4132 5.2709 23.8155 4.94034 23.1708 4.73538L20.747 12.3594C20.3853 12.2444 20.05 12.0589 19.7604 11.8137L24.9295 5.708ZM23.1708 4.73538C22.5261 4.53042 21.8473 4.45512 21.1734 4.51382L21.8675 12.4836C21.4895 12.5166 21.1086 12.4743 20.747 12.3594L23.1708 4.73538ZM21.1734 4.51382C20.4994 4.57251 19.8438 4.76404 19.2443 5.07737L22.9497 12.1675C22.6133 12.3433 22.2455 12.4507 21.8675 12.4836L21.1734 4.51382ZM19.2443 5.07737C18.6447 5.3907 18.1132 5.81961 17.6802 6.33938L23.8271 11.4595C23.5842 11.7511 23.286 11.9917 22.9497 12.1675L19.2443 5.07737ZM17.6802 6.33938C17.2472 6.85916 16.9215 7.4595 16.7217 8.10579L24.3648 10.4686C24.2527 10.8312 24.0699 11.168 23.8271 11.4595L17.6802 6.33938ZM16.7217 8.10579C16.5219 8.75209 16.452 9.43154 16.5161 10.105L24.4801 9.34715C24.5161 9.72492 24.4769 10.1061 24.3648 10.4686L16.7217 8.10579ZM16.5161 10.105C16.5802 10.7784 16.7769 11.4325 17.095 12.0295L24.1553 8.26754C24.3338 8.60246 24.4442 8.96939 24.4801 9.34715L16.5161 10.105ZM17.095 12.0295C17.4132 12.6265 17.8463 13.1546 18.3695 13.5834L23.4404 7.39582C23.7339 7.63635 23.9769 7.93261 24.1553 8.26754L17.095 12.0295ZM18.3444 13.5626L21.8075 16.4483L26.9286 10.3022L23.4655 7.4166L18.3444 13.5626ZM21.8075 10.3022L18.3444 13.1878L23.4655 19.3339L26.9286 16.4483L21.8075 10.3022ZM18.3695 13.1671C17.8463 13.5958 17.4132 14.124 17.095 14.721L24.1553 18.4829C23.9769 18.8179 23.7339 19.1141 23.4404 19.3547L18.3695 13.1671ZM17.095 14.721C16.7769 15.318 16.5802 15.9721 16.5161 16.6455L24.4801 17.4033C24.4442 17.7811 24.3338 18.148 24.1553 18.4829L17.095 14.721ZM16.5161 16.6455C16.452 17.3189 16.5219 17.9984 16.7217 18.6447L24.3648 16.2819C24.4769 16.6444 24.5161 17.0256 24.4801 17.4033L16.5161 16.6455ZM16.7217 18.6447C16.9215 19.291 17.2472 19.8913 17.6802 20.4111L23.8271 15.2909C24.0699 15.5825 24.2527 15.9193 24.3648 16.2819L16.7217 18.6447ZM17.6802 20.4111C18.1132 20.9309 18.6447 21.3598 19.2443 21.6731L22.9497 14.583C23.286 14.7587 23.5842 14.9994 23.8271 15.2909L17.6802 20.4111ZM19.2443 21.6731C19.8438 21.9864 20.4994 22.178 21.1734 22.2367L21.8675 14.2668C22.2455 14.2998 22.6133 14.4072 22.9497 14.583L19.2443 21.6731ZM21.1734 22.2367C21.8473 22.2954 22.5261 22.2201 23.1708 22.0151L20.747 14.3911C21.1086 14.2762 21.4895 14.2339 21.8675 14.2668L21.1734 22.2367ZM23.1708 22.0151C23.8155 21.8101 24.4132 21.4796 24.9295 21.0425L19.7604 14.9367C20.05 14.6916 20.3853 14.5061 20.747 14.3911L23.1708 22.0151ZM24.9057 21.0625L29.4057 17.3125L24.2842 11.1667L19.7842 14.9167L24.9057 21.0625ZM29.4051 17.313C29.9825 16.832 30.447 16.2299 30.7658 15.5494L23.5214 12.1556C23.7003 11.7738 23.9609 11.4361 24.2847 11.1663L29.4051 17.313ZM30.7658 15.5494C31.0846 14.869 31.2499 14.1267 31.2499 13.3752H23.2499C23.2499 12.9537 23.3426 12.5373 23.5214 12.1556L30.7658 15.5494ZM31.2499 13.3752C31.2499 12.6238 31.0846 11.8815 30.7658 11.201L23.5214 14.5949C23.3426 14.2132 23.2499 13.7968 23.2499 13.3752H31.2499ZM30.7658 11.201C30.4471 10.5206 29.9825 9.9185 29.4051 9.43753L24.2847 15.5842C23.9609 15.3144 23.7003 14.9767 23.5214 14.5949L30.7658 11.201ZM20.3764 0.308604C19.7438 0.0785365 19.072 -0.0246434 18.3995 0.0049572L18.7513 7.99722C18.374 8.01382 17.9971 7.95594 17.6423 7.82688L20.3764 0.308604ZM18.3995 0.0049572C17.727 0.0345581 17.0669 0.196361 16.4569 0.48112L19.841 7.7301C19.4988 7.88985 19.1285 7.98061 18.7513 7.99722L18.3995 0.0049572ZM16.4569 0.48112C15.8469 0.765881 15.299 1.16802 14.8445 1.66457L20.7455 7.06622C20.4905 7.34477 20.1832 7.57036 19.841 7.7301L16.4569 0.48112ZM14.8445 1.66457C14.39 2.16112 14.0377 2.74235 13.8078 3.37506L21.327 6.10667C21.1981 6.46161 21.0005 6.78767 20.7455 7.06622L14.8445 1.66457ZM13.8083 3.3739L7.80827 19.8739L15.3266 22.6078L21.3266 6.10784L13.8083 3.3739ZM7.80724 19.8767C7.34392 21.1539 7.40666 22.5627 7.98166 23.7936L15.2298 20.4077C15.5524 21.0982 15.5876 21.8885 15.3277 22.605L7.80724 19.8767ZM7.98166 23.7936C8.55667 25.0245 9.59689 25.9768 10.8737 26.441L13.6074 18.9226C14.3237 19.183 14.9072 19.7172 15.2298 20.4077L7.98166 23.7936ZM10.8549 26.4341C11.4233 26.644 12.0245 26.7511 12.6303 26.7502L12.6196 18.7502C12.9631 18.7498 13.304 18.8105 13.6262 18.9295L10.8549 26.4341ZM12.6242 26.7502C13.6765 26.7504 14.7033 26.4267 15.5651 25.8231L10.9759 19.2703C11.4594 18.9317 12.0354 18.7501 12.6257 18.7502L12.6242 26.7502ZM15.5651 25.8231C16.427 25.2195 17.0822 24.3652 17.4417 23.3763L9.92316 20.643C10.1248 20.0882 10.4924 19.609 10.9759 19.2703L15.5651 25.8231ZM17.4416 23.3766L23.4416 6.87659L15.9233 4.14265L9.92327 20.6426L17.4416 23.3766ZM23.4416 6.87669C23.6716 6.24406 23.7748 5.5723 23.7452 4.89977L15.753 5.25155C15.7364 4.87427 15.7942 4.49743 15.9233 4.14255L23.4416 6.87669ZM23.7452 4.89977C23.7156 4.22723 23.5538 3.56714 23.2691 2.95718L16.0201 6.3413C15.8603 5.99913 15.7696 5.62883 15.753 5.25155L23.7452 4.89977ZM23.2691 2.95718C22.9843 2.34722 22.5822 1.79931 22.0856 1.34478L16.684 7.24581C16.4054 6.99083 16.1798 6.68347 16.0201 6.3413L23.2691 2.95718ZM22.0856 1.34478C21.5891 0.890254 21.0078 0.538001 20.3751 0.308145L17.6435 7.82734C17.2886 7.6984 16.9625 7.50079 16.684 7.24581L22.0856 1.34478Z" fill="#16181D" mask="url(#path-1-outside-1_9_522)"/>
</svg>